<?xml version="1.0" encoding="UTF-8" standalone="no"?>
<!-- Created with Inkscape (http://www.inkscape.org/) -->

<svg
   xmlns:dc="http://purl.org/dc/elements/1.1/"
   xmlns:cc="http://creativecommons.org/ns#"
   xmlns:rdf="http://www.w3.org/1999/02/22-rdf-syntax-ns#"
   xmlns:svg="http://www.w3.org/2000/svg"
   xmlns="http://www.w3.org/2000/svg"
   xmlns:sodipodi="http://sodipodi.sourceforge.net/DTD/sodipodi-0.dtd"
   xmlns:inkscape="http://www.inkscape.org/namespaces/inkscape"
   width="26.458332mm"
   height="26.45833mm"
   viewBox="0 0 26.458332 26.45833"
   version="1.1"
   id="svg8"
   sodipodi:docname="favicon.svg"
   inkscape:version="0.92.3 (2405546, 2018-03-11)">
  <defs
     id="defs2" />
  <sodipodi:namedview
     id="base"
     pagecolor="#ffffff"
     bordercolor="#666666"
     borderopacity="1.0"
     inkscape:pageopacity="0"
     inkscape:pageshadow="2"
     inkscape:zoom="1.979899"
     inkscape:cx="72.759485"
     inkscape:cy="57.578098"
     inkscape:document-units="mm"
     inkscape:current-layer="layer1"
     showgrid="false"
     fit-margin-top="0"
     fit-margin-left="0"
     fit-margin-right="0"
     fit-margin-bottom="0"
     inkscape:window-width="1920"
     inkscape:window-height="1029"
     inkscape:window-x="0"
     inkscape:window-y="27"
     inkscape:window-maximized="1" />
  <metadata
     id="metadata5">
    <rdf:RDF>
      <cc:Work
         rdf:about="">
        <dc:format>image/svg+xml</dc:format>
        <dc:type
           rdf:resource="http://purl.org/dc/dcmitype/StillImage" />
        <dc:title></dc:title>
      </cc:Work>
    </rdf:RDF>
  </metadata>
  <g
     inkscape:label="Calque 1"
     inkscape:groupmode="layer"
     id="layer1"
     transform="translate(-47.247246,-165.46484)">
    <path
       style="opacity:1;fill:#2a7fff;fill-opacity:1;stroke:none;stroke-width:0.1980647"
       d="m 49.363792,165.46484 c -1.172639,0 -2.116546,0.94404 -2.116546,2.11667 v 22.22499 c 0,1.17263 0.943907,2.11667 2.116546,2.11667 h 22.225104 c 1.172638,0 2.116683,-0.94404 2.116683,-2.11667 v -22.22499 c 0,-1.17263 -0.944045,-2.11667 -2.116683,-2.11667 z m 0.618283,4.88963 c 0.728461,0.0221 1.4789,0.0442 2.29566,0.0442 0.794685,0 1.788131,-0.0221 2.671114,-0.0442 0.132447,0.13245 0.132447,0.59603 0,0.72848 -1.501071,0.15453 -1.633532,0.46357 -1.125817,1.76597 l 3.509803,8.98434 h 0.110339 l 3.48779,-8.85185 c 0.463567,-1.19202 0.463539,-1.78809 -1.16998,-1.89846 -0.132447,-0.13245 -0.132447,-0.59603 0,-0.72848 0.905057,0.0221 1.89842,0.0442 2.406136,0.0442 0.507713,0 1.28039,-0.0221 1.942629,-0.0442 0.132445,0.13245 0.132445,0.59603 0,0.72848 -1.390701,0.15453 -1.766038,1.01546 -2.185458,2.05296 l -4.547293,11.25797 c -0.132447,0.33112 -0.287,0.50767 -0.52982,0.50767 -0.220746,0 -0.375223,-0.15448 -0.507671,-0.50767 L 51.96873,173.09175 c -0.596014,-1.52314 -0.750541,-1.89843 -1.964642,-2.0088 -0.132446,-0.13245 -0.15446,-0.59603 -0.02201,-0.72848 z m 15.26101,0 c 1.10373,0.0221 2.251687,0.0442 3.068445,0.0442 0.838834,0 1.810132,-0.0221 2.648965,-0.0442 0.132448,0.13245 0.132448,0.59603 0,0.72848 -1.324476,0.0662 -1.6998,0.17662 -1.6998,2.0088 v 9.27132 c 0,3.15665 -1.302426,4.3045 -2.251634,5.12125 -0.905058,0.77261 -1.589295,0.94916 -2.582651,0.94916 -0.485639,0 -1.655637,-0.3973 -1.655637,-1.19198 0,-0.48564 0.662272,-0.94916 0.971315,-0.94916 0.52979,0 0.72839,0.28687 0.860838,0.57384 0.154522,0.33112 0.463647,0.57398 0.905138,0.57398 0.728462,0 1.876315,-0.61803 1.876315,-4.59143 v -9.75698 c 0,-1.83218 -0.375328,-1.94257 -2.141294,-2.0088 -0.132448,-0.13245 -0.132448,-0.59603 0,-0.72848 z"
       id="rect10"
       inkscape:connector-curvature="0" />
  </g>
</svg>
