<?xml version="1.0" encoding="UTF-8" standalone="no"?>
<svg
   xmlns:dc="http://purl.org/dc/elements/1.1/"
   xmlns:cc="http://creativecommons.org/ns#"
   xmlns:rdf="http://www.w3.org/1999/02/22-rdf-syntax-ns#"
   xmlns:svg="http://www.w3.org/2000/svg"
   xmlns="http://www.w3.org/2000/svg"
   xmlns:xlink="http://www.w3.org/1999/xlink"
   xmlns:sodipodi="http://sodipodi.sourceforge.net/DTD/sodipodi-0.dtd"
   xmlns:inkscape="http://www.inkscape.org/namespaces/inkscape"
   inkscape:export-ydpi="360"
   inkscape:export-xdpi="360"
   inkscape:export-filename="/home/vjoly/vjoly-website/images/raw/logo_yale.png"
   inkscape:version="1.0beta2 (unknown)"
   sodipodi:docname="logo_yale.svg"
   id="svg11"
   version="1.1"
   height="80"
   width="80">
  <metadata
     id="metadata15">
    <rdf:RDF>
      <cc:Work
         rdf:about="">
        <dc:format>image/svg+xml</dc:format>
        <dc:type
           rdf:resource="http://purl.org/dc/dcmitype/StillImage" />
        <dc:title></dc:title>
      </cc:Work>
    </rdf:RDF>
  </metadata>
  <sodipodi:namedview
     inkscape:current-layer="svg11"
     inkscape:window-maximized="1"
     inkscape:window-y="27"
     inkscape:window-x="0"
     inkscape:cy="51.977055"
     inkscape:cx="63.858517"
     inkscape:zoom="4.8329326"
     fit-margin-bottom="0"
     fit-margin-right="0"
     fit-margin-left="0"
     fit-margin-top="0"
     showgrid="false"
     id="namedview13"
     inkscape:window-height="1029"
     inkscape:window-width="1920"
     inkscape:pageshadow="2"
     inkscape:pageopacity="0"
     guidetolerance="10"
     gridtolerance="10"
     objecttolerance="10"
     borderopacity="1"
     inkscape:document-rotation="0"
     bordercolor="#666666"
     pagecolor="#ffffff" />
  <defs
     id="defs5">
    <symbol
       id="yale-logo">
      <path
         inkscape:connector-curvature="0"
         id="path2"
         d="m 19.5,7.4 -5.9,10 v 6.7 c 0.7,1.6 2.4,1.8 4.1,1.9 v 1 H 6 V 26.1 C 7.7,26 9.7,25.8 10.2,24.7 V 17.8 L 4.2,7.6 C 3.1,5.8 2.1,5.2 0.1,5 V 4.1 H 10.2 V 5 C 8.3,5.2 7.7,5.5 7.2,5.9 L 12.8,15.6 18.3,6 C 17.7,5.5 16.9,5.2 15,5 V 4.1 h 8.6 V 5 c -1.9,0.1 -3.1,0.8 -4.1,2.4 z m 11.8,19.9 c -1.9,0 -2.9,-1.3 -3,-2.3 -1.2,1.3 -2.8,2.3 -4.3,2.3 -1.9,0 -3.6,-1.2 -3.6,-3.2 0,-1 0.3,-2.1 0.8,-2.9 l 7.2,-2.6 v -2.7 c 0,-1.6 -0.8,-3.2 -2.4,-3.2 -1,0 -1.9,1.2 -2,3 l -3.2,0.5 V 16 c 1.1,-3.2 4.6,-4.5 6.4,-4.5 3.3,0 4.5,1.7 4.4,4.4 l -0.1,7.6 c 0,1.5 0.8,1.8 1.5,1.8 0.6,0 1.2,-0.4 1.8,-1 v 1 c -0.8,0.9 -2.2,2 -3.5,2 z m -7.2,-5.8 c -0.1,0.6 -0.3,1.1 -0.3,1.9 0,1.1 0.6,2.2 1.8,2.2 1.1,0 1.7,-0.4 2.7,-1.1 v -4.9 c -0.9,0.3 -3.2,1.4 -4.2,1.9 z m 11,5.5 v -0.8 c 1.6,-0.1 2.1,-0.5 2.4,-1.1 V 6.4 C 37.5,5.2 37.3,4.7 34.8,4.5 V 3.8 l 6.6,-1.7 0.2,0.6 -1,1.3 v 21.1 c 0.4,0.7 1,1 2.5,1.1 V 27 Z m 16.6,0.3 c -3.8,0 -6.7,-3 -6.7,-7.2 0,-5.1 3.1,-8.6 7.6,-8.6 3.6,0 5.5,2 5.5,5.2 v 0.6 l -9.7,-0.1 c -0.1,0.4 -0.1,1 -0.1,1.8 0,3.7 2.3,6.1 5.4,6.1 1.8,0 2.8,-0.6 4.2,-1.9 l 0.5,0.8 c -2,2.1 -3.7,3.3 -6.7,3.3 z M 52,12.6 c -1.8,0 -3.1,1.4 -3.5,3.7 l 6.3,-0.1 C 54.9,14.4 53.7,12.6 52,12.6 Z" />
    </symbol>
  </defs>
  <rect
     y="0"
     x="0"
     height="80"
     width="80"
     id="rect19"
     style="fill:#00356b;fill-opacity:1;stroke-width:2.6021;stroke-linecap:square;stroke-linejoin:round" />
  <use
     transform="translate(10.75,-10.7)"
     height="100%"
     width="100%"
     id="use9"
     fill="#ffffff"
     y="36"
     x="0"
     xlink:href="#yale-logo" />
</svg>
